<svg xmlns="http://www.w3.org/2000/svg">
    <!-- Navigation and history -->

    <symbol
        id="arrow-uturn-left"
        viewBox="0 0 24 24"
        fill="none"
        stroke="currentColor"
        stroke-width="1.5"
        stroke-linecap="round"
        stroke-linejoin="round"
    >
        <path d="M9 15 3 9m0 0 6-6M3 9h12a6 6 0 0 1 0 12h-3" />
    </symbol>

    <symbol
        id="arrow-uturn-right"
        viewBox="0 0 24 24"
        fill="none"
        stroke="currentColor"
        stroke-width="1.5"
        stroke-linecap="round"
        stroke-linejoin="round"
    >
        <path d="m15 15 6-6m0 0-6-6m6 6H9a6 6 0 0 0 0 12h3" />
    </symbol>

    <symbol
        id="arrow-right"
        viewBox="0 0 16 16"
        fill="none"
        stroke="currentColor"
        stroke-width="1.5"
        stroke-linecap="round"
        stroke-linejoin="round"
    >
        <path d="M2 8h9M8 5l3 3-3 3" />
    </symbol>

    <!-- Application appearance -->

    <symbol
        id="sun"
        viewBox="0 0 24 24"
        fill="none"
        stroke="currentColor"
        stroke-width="1.5"
        stroke-linecap="round"
        stroke-linejoin="round"
    >
        <path
            d="M12 3v2.25m0 13.5V21m9-9h-2.25M5.25 12H3m15.364-6.364-1.591 1.591M7.227 16.773l-1.591 1.591m12.728 0-1.591-1.591M7.227 7.227 5.636 5.636"
        />
        <path d="M15.75 12a3.75 3.75 0 1 1-7.5 0 3.75 3.75 0 0 1 7.5 0Z" />
    </symbol>

    <symbol
        id="moon"
        viewBox="0 0 24 24"
        fill="none"
        stroke="currentColor"
        stroke-width="1.5"
        stroke-linecap="round"
        stroke-linejoin="round"
    >
        <path
            d="M21.752 15.002A9.72 9.72 0 0 1 18 15.75 9.75 9.75 0 0 1 8.25 6c0-1.33.266-2.598.748-3.752A9.753 9.753 0 0 0 3 11.25 9.75 9.75 0 0 0 12.75 21a9.753 9.753 0 0 0 9.002-5.998Z"
        />
    </symbol>

    <symbol
        id="system"
        viewBox="0 0 24 24"
        fill="none"
        stroke="currentColor"
        stroke-width="1.5"
        stroke-linecap="round"
        stroke-linejoin="round"
    >
        <path d="M9 17.25v1.007a3 3 0 0 1-.879 2.122L7.5 21h9l-.621-.621A3 3 0 0 1 15 18.257V17.25" />
        <path d="M3.75 4.5h16.5A1.5 1.5 0 0 1 21.75 6v9.75a1.5 1.5 0 0 1-1.5 1.5H3.75a1.5 1.5 0 0 1-1.5-1.5V6a1.5 1.5 0 0 1 1.5-1.5Z" />
    </symbol>

    <symbol
        id="settings"
        viewBox="0 0 24 24"
        fill="none"
        stroke="currentColor"
        stroke-width="1.5"
        stroke-linecap="round"
        stroke-linejoin="round"
    >
        <path
            d="M9.594 3.94c.09-.542.56-.94 1.11-.94h2.593c.55 0 1.02.398 1.11.94l.213 1.281c.063.374.313.686.645.87.074.04.147.083.22.127.325.196.72.257 1.075.124l1.217-.456a1.125 1.125 0 0 1 1.37.49l1.296 2.247a1.125 1.125 0 0 1-.26 1.431l-1.003.827c-.293.241-.438.613-.43.992a7.723 7.723 0 0 1 0 .255c-.008.378.137.75.43.991l1.004.827c.424.35.534.955.26 1.43l-1.298 2.247a1.125 1.125 0 0 1-1.369.491l-1.217-.456c-.355-.133-.75-.072-1.076.124a6.47 6.47 0 0 1-.22.128c-.331.183-.581.495-.644.869l-.213 1.281c-.09.543-.56.94-1.11.94h-2.594c-.55 0-1.019-.398-1.11-.94l-.213-1.281c-.062-.374-.312-.686-.644-.87a6.52 6.52 0 0 1-.22-.127c-.325-.196-.72-.257-1.076-.124l-1.217.456a1.125 1.125 0 0 1-1.369-.49l-1.297-2.247a1.125 1.125 0 0 1 .26-1.431l1.004-.827c.292-.24.437-.613.43-.991a6.932 6.932 0 0 1 0-.255c.007-.38-.138-.751-.43-.992l-1.004-.827a1.125 1.125 0 0 1-.26-1.43l1.297-2.247a1.125 1.125 0 0 1 1.37-.491l1.216.456c.356.133.751.072 1.076-.124.072-.044.146-.086.22-.128.332-.183.582-.495.644-.869l.214-1.28Z"
        />
        <path d="M15 12a3 3 0 1 1-6 0 3 3 0 0 1 6 0Z" />
    </symbol>

    <!-- Drawers -->

    <symbol
        id="sidebar-left"
        viewBox="0 0 24 24"
        fill="none"
        stroke="currentColor"
        stroke-width="1.5"
        stroke-linecap="round"
        stroke-linejoin="round"
    >
        <path d="M4.5 5.25h15a1.5 1.5 0 0 1 1.5 1.5v10.5a1.5 1.5 0 0 1-1.5 1.5h-15A1.5 1.5 0 0 1 3 17.25V6.75a1.5 1.5 0 0 1 1.5-1.5Z" />
        <path d="M9 5.25v13.5" />
    </symbol>

    <symbol
        id="sidebar-right"
        viewBox="0 0 24 24"
        fill="none"
        stroke="currentColor"
        stroke-width="1.5"
        stroke-linecap="round"
        stroke-linejoin="round"
    >
        <path d="M4.5 5.25h15a1.5 1.5 0 0 1 1.5 1.5v10.5a1.5 1.5 0 0 1-1.5 1.5h-15A1.5 1.5 0 0 1 3 17.25V6.75a1.5 1.5 0 0 1 1.5-1.5Z" />
        <path d="M15 5.25v13.5" />
    </symbol>

    <symbol
        id="lock"
        viewBox="0 0 24 24"
        fill="none"
        stroke="currentColor"
        stroke-width="1.5"
        stroke-linecap="round"
        stroke-linejoin="round"
    >
        <rect x="5.25" y="10.5" width="13.5" height="9" rx="2" />
        <path d="M8.25 10.5V8.25a3.75 3.75 0 0 1 7.5 0v2.25" />
    </symbol>

    <symbol
        id="unlock"
        viewBox="0 0 24 24"
        fill="none"
        stroke="currentColor"
        stroke-width="1.5"
        stroke-linecap="round"
        stroke-linejoin="round"
    >
        <rect x="5.25" y="10.5" width="13.5" height="9" rx="2" />
        <path d="M8.25 10.5V8.25a3.75 3.75 0 0 1 6.45-2.6" />
    </symbol>

    <!-- Foundry features -->

    <symbol id="spacing" viewBox="0 0 24 24" fill="currentColor" stroke="none">
        <path
            fill-rule="evenodd"
            clip-rule="evenodd"
            d="M1.5 7.125c0-1.036.84-1.875 1.875-1.875h6c1.036 0 1.875.84 1.875 1.875v3.75c0 1.036-.84 1.875-1.875 1.875h-6A1.875 1.875 0 0 1 1.5 10.875v-3.75Zm12 1.5c0-1.036.84-1.875 1.875-1.875h5.25c1.035 0 1.875.84 1.875 1.875v8.25c0 1.035-.84 1.875-1.875 1.875h-5.25a1.875 1.875 0 0 1-1.875-1.875v-8.25ZM3 16.125c0-1.036.84-1.875 1.875-1.875h5.25c1.036 0 1.875.84 1.875 1.875v2.25c0 1.035-.84 1.875-1.875 1.875h-5.25A1.875 1.875 0 0 1 3 18.375v-2.25Z"
        />
    </symbol>

    <symbol
        id="shape"
        viewBox="0 0 24 24"
        fill="none"
        stroke="currentColor"
        stroke-width="1.5"
        stroke-linecap="round"
        stroke-linejoin="round"
    >
        <path d="m21 7.5-9-5.25L3 7.5m18 0-9 5.25m9-5.25v9l-9 5.25M3 7.5l9 5.25M3 7.5v9l9 5.25m0-9v9" />
    </symbol>

    <symbol id="shadows" viewBox="0 0 16 16" fill="currentColor" stroke="none">
        <path
            d="M16 8A8 8 0 1 1 0 8a8 8 0 0 1 16 0m-8 7a.5.5 0 0 1 0-1h3.5q.048 0 .093.009A7 7 0 0 0 12.9 13H8a.5.5 0 0 1 0-1h5.745q.331-.474.581-1H8a.5.5 0 0 1 0-1h6.71a7 7 0 0 0 .22-1H8a.5.5 0 0 1 0-1h7q0-.51-.07-1H8a.5.5 0 0 1 0-1h6.71a7 7 0 0 0-.384-1H8a.5.5 0 0 1 0-1h5.745a7 7 0 0 0-.846-1H8a.5.5 0 0 1 0-1h3.608A7 7 0 1 0 8 15"
        />
    </symbol>

    <symbol id="export" viewBox="0 0 16 16" fill="currentColor" stroke="none">
        <path
            fill-rule="evenodd"
            d="M1.114 8.063V7.9c1.005-.102 1.497-.615 1.497-1.6V4.503c0-1.094.39-1.538 1.354-1.538h.273V2h-.376C2.25 2 1.49 2.759 1.49 4.352v1.524c0 1.094-.376 1.456-1.49 1.456v1.299c1.114 0 1.49.362 1.49 1.456v1.524c0 1.593.759 2.352 2.372 2.352h.376v-.964h-.273c-.964 0-1.354-.444-1.354-1.538V9.663c0-.984-.492-1.497-1.497-1.6M14.886 7.9v.164c-1.005.103-1.497.616-1.497 1.6v1.798c0 1.094-.39 1.538-1.354 1.538h-.273v.964h.376c1.613 0 2.372-.759 2.372-2.352v-1.524c0-1.094.376-1.456 1.49-1.456v-1.3c-1.114 0-1.49-.362-1.49-1.456V4.352C14.51 2.759 13.75 2 12.138 2h-.376v.964h.273c.964 0 1.354.444 1.354 1.538V6.3c0 .984.492 1.497 1.497 1.6M8.5 4.5a.5.5 0 0 0-1 0v5.793L5.354 8.146a.5.5 0 1 0-.708.708l3 3a.5.5 0 0 0 .708 0l3-3a.5.5 0 0 0-.708-.708L8.5 10.293z"
        />
    </symbol>

    <symbol
        id="forge"
        viewBox="0 0 24 24"
        fill="none"
        stroke="currentColor"
        stroke-width="1.5"
        stroke-linecap="round"
        stroke-linejoin="round"
    >
        <path d="M14.25 5.25 18.75 9.75" />
        <path d="m13.5 6 4.5-4.5 4.5 4.5-4.5 4.5" />
        <path d="m15.75 8.25-12 12" />
        <path d="m2.25 18.75 3 3" />
    </symbol>

    <!-- Actions and status -->

    <symbol
        id="x-mark"
        viewBox="0 0 24 24"
        fill="none"
        stroke="currentColor"
        stroke-width="1.5"
        stroke-linecap="round"
        stroke-linejoin="round"
    >
        <path d="M6 18 18 6M6 6l12 12" />
    </symbol>

    <symbol
        id="x-circle"
        viewBox="0 0 24 24"
        fill="none"
        stroke="currentColor"
        stroke-width="1.5"
        stroke-linecap="round"
        stroke-linejoin="round"
    >
        <path d="m9.75 9.75 4.5 4.5m0-4.5-4.5 4.5" />
        <path d="M21 12a9 9 0 1 1-18 0 9 9 0 0 1 18 0Z" />
    </symbol>

    <symbol id="clipboard" viewBox="0 0 16 16" fill="currentColor" stroke="none">
        <path d="M4 1.5H3a2 2 0 0 0-2 2V14a2 2 0 0 0 2 2h10a2 2 0 0 0 2-2V3.5a2 2 0 0 0-2-2h-1v1h1a1 1 0 0 1 1 1V14a1 1 0 0 1-1 1H3a1 1 0 0 1-1-1V3.5a1 1 0 0 1 1-1h1z" />
        <path d="M9.5 1a.5.5 0 0 1 .5.5v1a.5.5 0 0 1-.5.5h-3a.5.5 0 0 1-.5-.5v-1a.5.5 0 0 1 .5-.5zm-3-1A1.5 1.5 0 0 0 5 1.5v1A1.5 1.5 0 0 0 6.5 4h3A1.5 1.5 0 0 0 11 2.5v-1A1.5 1.5 0 0 0 9.5 0z" />
    </symbol>

    <symbol id="check" viewBox="0 0 16 16" fill="currentColor" stroke="none">
        <path d="M12.736 3.97a.733.733 0 0 1 1.047 0c.286.289.29.756.01 1.05L7.88 12.01a.733.733 0 0 1-1.065.02L3.217 8.384a.733.733 0 0 1 1.046-1.027l3.052 3.093 5.4-6.425z" />
    </symbol>

    <symbol id="x" viewBox="0 0 16 16" fill="currentColor" stroke="none">
        <path d="M2.146 2.854a.5.5 0 1 1 .708-.708L8 7.293l5.146-5.147a.5.5 0 0 1 .708.708L8.707 8l5.147 5.146a.5.5 0 0 1-.708.708L8 8.707l-5.146 5.147a.5.5 0 0 1-.708-.708L7.293 8z" />
    </symbol>

    <symbol id="download" viewBox="0 0 16 16" fill="currentColor" stroke="none">
        <path d="M.5 9.9a.5.5 0 0 1 .5.5v2.5a1 1 0 0 0 1 1h12a1 1 0 0 0 1-1v-2.5a.5.5 0 0 1 1 0v2.5a2 2 0 0 1-2 2H2a2 2 0 0 1-2-2v-2.5a.5.5 0 0 1 .5-.5" />
        <path d="M7.646 11.854a.5.5 0 0 0 .708 0l3-3a.5.5 0 0 0-.708-.708L8.5 10.293V1.5a.5.5 0 0 0-1 0v8.793L5.354 8.146a.5.5 0 1 0-.708.708z" />
    </symbol>

    <!-- Color protection -->

    <symbol id="color-locked" viewBox="0 0 16 16" fill="currentColor" stroke="none">
        <path d="M8 0a4 4 0 0 1 4 4v2.05a2.5 2.5 0 0 1 2 2.45v5a2.5 2.5 0 0 1-2.5 2.5h-7A2.5 2.5 0 0 1 2 13.5v-5a2.5 2.5 0 0 1 2-2.45V4a4 4 0 0 1 4-4m0 1a3 3 0 0 0-3 3v2h6V4a3 3 0 0 0-3-3" />
    </symbol>

    <symbol id="color-unlocked" viewBox="0 0 16 16" fill="currentColor" stroke="none">
        <path d="M12 0a4 4 0 0 1 4 4v2.5h-1V4a3 3 0 1 0-6 0v2h.5A2.5 2.5 0 0 1 12 8.5v5A2.5 2.5 0 0 1 9.5 16h-7A2.5 2.5 0 0 1 0 13.5v-5A2.5 2.5 0 0 1 2.5 6H8V4a4 4 0 0 1 4-4" />
    </symbol>

    <!-- Randomizer -->

    <symbol id="dice" viewBox="0 0 1024 1024" fill="currentColor" stroke="none">
        <path d="M341.333333 385.706667c-11.946667 0-22.186667-4.266667-30.72-12.8-7.970133-7.970133-11.946667-17.92-11.946666-29.866667s3.976533-22.186667 11.946666-30.72c8.533333-7.953067 18.773333-11.946667 30.72-11.946667s21.896533 3.976533 29.866667 11.946667c8.533333 8.533333 12.8 18.773333 12.8 30.72s-4.266667 21.896533-12.8 29.866667c-7.970133 8.533333-17.92 12.8-29.866667 12.8z m128-213.333334c11.946667 0 21.896533 3.976533 29.866667 11.946667 8.533333 8.533333 12.8 18.773333 12.8 30.72s-4.266667 21.896533-12.8 29.866667c-7.970133 8.533333-17.92 12.8-29.866667 12.8s-22.186667-4.266667-30.72-12.8c-7.970133-7.970133-11.946667-17.92-11.946666-29.866667s3.976533-22.186667 11.946666-30.72c8.533333-7.970133 18.773333-11.946667 30.72-11.946667zM243.2 500.906667c-7.970133 8.533333-17.92 12.8-29.866667 12.8s-22.186667-4.266667-30.72-12.8c-7.970133-7.970133-11.946667-17.92-11.946666-29.866667s3.976533-22.186667 11.946666-30.72c8.533333-7.953067 18.773333-11.946667 30.72-11.946667s21.896533 3.976533 29.866667 11.946667c8.533333 8.533333 12.8 18.773333 12.8 30.72s-4.266667 21.896533-12.8 29.866667c-7.970133 8.533333-17.92 12.8-29.866667 12.8z" />
        <path d="M512 954.026667c-27.0336-.682667-50.176-10.683733-69.239467-29.730134-19.3024-19.3536-30.429867-42.666667-33.0752-69.2736L409.6 616.106667H170.666667c-27.0336-.682667-50.176-10.683733-69.239467-29.730134-19.285333-19.319467-30.4128-42.615467-33.0752-69.256533L68.266667 169.813333c2.082133-27.562667 12.629333-50.414933 31.4368-69.239466 19.626667-19.626667 43.3664-29.917867 70.536533-30.583467h344.302933c27.016533.682667 50.158933 10.666667 69.239467 29.730133 19.643733 19.626667 29.934933 43.349333 30.6176 70.519467V407.893333h241.493333c27.050667.7168 50.176 10.7008 69.239467 29.7472 19.6096 19.626667 29.917867 43.3664 30.600533 70.519467V854.186667c-2.065067 27.5456-12.612267 50.397867-31.453866 69.256533-19.643733 19.626667-43.3664 29.917867-70.536534 30.600533H512zm-68.266667-354.986667V853.333333c1.792 17.152 9.403733 33.041067 23.176534 46.848 12.817067 12.817067 27.716267 19.268267 45.5168 19.712H853.333333c17.937067-.443733 33.399467-7.202133 46.813867-20.599466 13.073067-13.090133 20.1216-28.279467 21.504-46.421334L921.6 508.586667c-.443733-17.954133-7.202133-33.399467-20.599467-46.813867-12.834133-12.817067-27.733333-19.285333-45.550933-19.7632L512 442.026667c-17.937067.4608-33.399467 7.202133-46.830933 20.616533-13.056 13.073067-20.087467 28.245333-21.486934 46.404267L443.733333 599.04zM123.8528 124.706133c-13.073067 13.073067-20.104533 28.2624-21.504 46.421334L102.4 515.413333c1.792 17.169067 9.403733 33.058133 23.159467 46.813867 12.817067 12.834133 27.733333 19.285333 45.533866 19.729067H409.6v-74.24c2.082133-27.562667 12.629333-50.414933 31.4368-69.239467 19.643733-19.6096 43.3664-29.9008 70.519467-30.583467h68.693333V170.666667c-.443733-17.954133-7.202133-33.399467-20.599467-46.813867-12.834133-12.8512-27.733333-19.3024-45.5168-19.746133H170.666667c-17.954133.443733-33.399467 7.185067-46.813867 20.599466z" />
        <path d="M840.533333 522.24c8.533333 8.533333 12.8 18.773333 12.8 30.72 0 11.9296-4.266667 21.896533-12.8 29.866667-7.970133 8.533333-17.92 12.8-29.866666 12.8s-22.186667-4.266667-30.72-12.8c-7.9872-7.953067-11.946667-17.92-11.946667-29.866667s3.959467-22.203733 11.946667-30.737067c8.533333-7.970133 18.773333-11.963733 30.72-11.963733s21.896533 4.027733 29.866666 11.9808zm0 128c8.533333 8.533333 12.8 18.773333 12.8 30.72 0 11.9296-4.266667 21.896533-12.8 29.866667-7.970133 8.533333-17.92 12.8-29.866666 12.8s-22.186667-4.266667-30.72-12.8c-7.9872-7.953067-11.946667-17.92-11.946667-29.866667s3.959467-22.203733 11.946667-30.737067c8.533333-7.970133 18.773333-11.9296 30.72-11.9296s21.896533 3.9936 29.866666 11.946667zm-60.586666 128c8.533333-7.953067 18.773333-11.9296 30.72-11.9296s21.896533 3.976533 29.866666 11.9296c8.533333 8.533333 12.8 18.773333 12.8 30.72 0 11.9296-4.266667 21.896533-12.8 29.866667-7.970133 8.533333-17.92 12.8-29.866666 12.8s-22.186667-4.266667-30.72-12.8c-7.9872-7.953067-11.946667-17.92-11.946667-29.866667s3.959467-22.186667 11.946667-30.72zM597.333333 552.96c0 11.9296-4.266667 21.896533-12.8 29.866667-7.970133 8.533333-17.92 12.8-29.866666 12.8s-22.186667-4.266667-30.72-12.8c-7.970133-7.953067-11.946667-17.92-11.946667-29.866667s3.976533-22.203733 11.946667-30.737067c8.533333-7.970133 18.773333-11.963733 30.72-11.963733s21.896533 3.9936 29.866666 11.963733c8.533333 8.5504 12.8 18.7904 12.8 30.737067zm-73.386666 225.28c8.533333-7.953067 18.773333-11.9296 30.72-11.9296s21.896533 3.976533 29.866666 11.9296c8.533333 8.533333 12.8 18.773333 12.8 30.72 0 11.9296-4.266667 21.896533-12.8 29.866667-7.970133 8.533333-17.92 12.8-29.866666 12.8s-22.186667-4.266667-30.72-12.8c-7.970133-7.953067-11.946667-17.92-11.946667-29.866667s3.976533-22.186667 11.946667-30.72zm-11.946667-97.28c0-11.946667 3.976533-22.203733 11.946667-30.737067 8.533333-7.970133 18.773333-11.9296 30.72-11.9296s21.896533 3.959467 29.866666 11.9296c8.533333 8.5504 12.8 18.7904 12.8 30.737067 0 11.9296-4.266667 21.896533-12.8 29.866667-7.970133 8.533333-17.92 12.8-29.866666 12.8s-22.186667-4.266667-30.72-12.8c-7.970133-7.953067-11.946667-17.92-11.946667-29.866667s3.976533-22.186667 11.946667-30.72z" />
    </symbol>
</svg>